{
  "source": "C:\\Users\\Peter\\Desktop\\stuff\\MIUN\\quantitative_research\\video_compression\\videos\\BVI-HD\\BVI-HD_CDVL_videos\\ORIG\\TreeTrunk_1920x1080_50fps.mp4",
  "output": "C:\\Users\\Peter\\Desktop\\stuff\\MIUN\\quantitative_research\\video_compression\\compressed_videos\\BVI-HD\\h264\\2.5\\TreeTrunk_1920x1080_50fps_h264.mp4",
  "codec": "h264",
  "ok": "Input #0, mov,mp4,m4a,3gp,3g2,mj2, from 'C:\\Users\\Peter\\Desktop\\stuff\\MIUN\\quantitative_research\\video_compression\\videos\\BVI-HD\\BVI-HD_CDVL_videos\\ORIG\\TreeTrunk_1920x1080_50fps.mp4':\n  Metadata:\n    major_brand     : isom\n    minor_version   : 512\n    compatible_brands: isomiso2avc1mp41\n    encoder         : Lavf54.28.101\n  Duration: 00:00:05.00, start: 0.000000, bitrate: 622415 kb/s\n  Stream #0:0[0x1](und): Video: h264 (High 4:4:4 Predictive) (avc1 / 0x31637661), yuv420p(progressive), 1920x1080, 622410 kb/s, 50 fps, 50 tbr, 50 tbn (default)\n    Metadata:\n      handler_name    : VideoHandler\n      vendor_id       : [0][0][0][0]\n[out#0/mp4 @ 000002b17680f740] Codec AVOption b:a (set bitrate (in bits/s)) has not been used for any stream. The most likely reason is either wrong type (e.g. a video option with no video streams) or that it is a private option of some decoder which was not actually used for any stream.\nStream mapping:\n  Stream #0:0 -> #0:0 (h264 (native) -> h264 (libx264))\nPress [q] to stop, [?] for help\n[libx264 @ 000002b1774c0340] using cpu capabilities: MMX2 SSE2Fast SSSE3 SSE4.2 AVX FMA3 BMI2 AVX2\n[libx264 @ 000002b1774c0340] profile High, level 5.0, 4:2:0, 8-bit\n[libx264 @ 000002b1774c0340] 264 - core 165 r3222 b35605a - H.264/MPEG-4 AVC codec - Copyleft 2003-2025 - http://www.videolan.org/x264.html - options: cabac=1 ref=5 deblock=1:0:0 analyse=0x3:0x113 me=hex subme=8 psy=1 psy_rd=1.00:0.00 mixed_ref=1 me_range=16 chroma_me=1 trellis=2 8x8dct=1 cqm=0 deadzone=21,11 fast_pskip=1 chroma_qp_offset=-2 threads=18 lookahead_threads=3 sliced_threads=0 nr=0 decimate=1 interlaced=0 bluray_compat=0 constrained_intra=0 bframes=3 b_pyramid=2 b_adapt=1 b_bias=0 direct=3 weightb=1 open_gop=0 weightp=2 keyint=250 keyint_min=25 scenecut=40 intra_refresh=0 rc_lookahead=50 rc=cbr mbtree=1 bitrate=2500 ratetol=1.0 qcomp=0.60 qpmin=0 qpmax=69 qpstep=4 vbv_maxrate=2500 vbv_bufsize=2500 nal_hrd=none filler=0 ip_ratio=1.40 aq=1:1.00\nOutput #0, mp4, to 'C:\\Users\\Peter\\Desktop\\stuff\\MIUN\\quantitative_research\\video_compression\\compressed_videos\\BVI-HD\\h264\\2.5\\TreeTrunk_1920x1080_50fps_h264.mp4':\n  Metadata:\n    major_brand     : isom\n    minor_version   : 512\n    compatible_brands: isomiso2avc1mp41\n    encoder         : Lavf62.3.100\n  Stream #0:0(und): Video: h264 (avc1 / 0x31637661), yuv420p(tv, progressive), 1920x1080, q=2-31, 2500 kb/s, 50 fps, 12800 tbn (default)\n    Metadata:\n      encoder         : Lavc62.11.100 libx264\n      handler_name    : VideoHandler\n      vendor_id       : [0][0][0][0]\n    Side data:\n      cpb: bitrate max/min/avg: 2500000/0/2500000 buffer size: 2500000 vbv_delay: N/A\nframe=    0 fps=0.0 q=0.0 size=       0KiB time=N/A bitrate=N/A speed=N/A elapsed=0:00:01.36    \nframe=    0 fps=0.0 q=0.0 size=       0KiB time=N/A bitrate=N/A speed=N/A elapsed=0:00:02.68    \nframe=    0 fps=0.0 q=0.0 size=       0KiB time=N/A bitrate=N/A speed=N/A elapsed=0:00:03.20    \nframe=    0 fps=0.0 q=0.0 size=       0KiB time=N/A bitrate=N/A speed=N/A elapsed=0:00:03.71    \nframe=   16 fps=3.8 q=42.0 size=       0KiB time=00:00:00.28 bitrate=   1.4kbits/s speed=0.066x elapsed=0:00:04.24    \nframe=   45 fps=9.4 q=41.0 size=       0KiB time=00:00:00.86 bitrate=   0.4kbits/s speed=0.18x elapsed=0:00:04.79    \nframe=   57 fps= 11 q=43.0 size=     256KiB time=00:00:01.10 bitrate=1906.9kbits/s speed=0.207x elapsed=0:00:05.30    \nframe=   77 fps= 13 q=48.0 size=     256KiB time=00:00:01.50 bitrate=1398.4kbits/s speed=0.257x elapsed=0:00:05.84    \nframe=  104 fps= 16 q=41.0 size=     256KiB time=00:00:01.96 bitrate=1070.2kbits/s speed=0.305x elapsed=0:00:06.41    \nframe=  121 fps= 17 q=44.0 size=     512KiB time=00:00:02.38 bitrate=1762.5kbits/s speed=0.34x elapsed=0:00:06.99    \nframe=  141 fps= 19 q=46.0 size=     512KiB time=00:00:02.70 bitrate=1553.6kbits/s speed=0.359x elapsed=0:00:07.52    \nframe=  157 fps= 19 q=49.0 size=     512KiB time=00:00:03.10 bitrate=1353.1kbits/s speed=0.381x elapsed=0:00:08.13    \nframe=  165 fps= 19 q=49.0 size=     768KiB time=00:00:03.26 bitrate=1930.0kbits/s speed=0.377x elapsed=0:00:08.65    \nframe=  185 fps= 20 q=51.0 size=     768KiB time=00:00:03.66 bitrate=1719.1kbits/s speed=0.397x elapsed=0:00:09.20    \nframe=  193 fps= 20 q=49.0 size=     768KiB time=00:00:03.82 bitrate=1647.1kbits/s speed=0.388x elapsed=0:00:09.83    \nframe=  217 fps= 21 q=48.0 size=    1024KiB time=00:00:04.30 bitrate=1950.9kbits/s speed=0.413x elapsed=0:00:10.41    \nframe=  245 fps= 22 q=-1.0 size=    1280KiB time=00:00:04.86 bitrate=2157.6kbits/s speed=0.444x elapsed=0:00:10.93    \n[mp4 @ 000002b17680f840] Starting second pass: moving the moov atom to the beginning of the file\n[out#0/mp4 @ 000002b17680f740] video:1376KiB audio:0KiB subtitle:0KiB other streams:0KiB global headers:0KiB muxing overhead: 0.274518%\nframe=  250 fps= 23 q=-1.0 Lsize=    1379KiB time=00:00:04.96 bitrate=2278.3kbits/s speed=0.453x elapsed=0:00:10.94    \n[libx264 @ 000002b1774c0340] frame I:1     Avg QP:39.08  size: 87786\n[libx264 @ 000002b1774c0340] frame P:63    Avg QP:43.92  size: 17663\n[libx264 @ 000002b1774c0340] frame B:186   Avg QP:46.05  size:  1115\n[libx264 @ 000002b1774c0340] consecutive B-frames:  0.4%  0.8%  1.2% 97.6%\n[libx264 @ 000002b1774c0340] mb I  I16..4:  9.0% 79.6% 11.3%\n[libx264 @ 000002b1774c0340] mb P  I16..4:  0.4%  4.9%  0.1%  P16..4: 38.1%  5.8%  8.2%  0.0%  0.0%    skip:42.4%\n[libx264 @ 000002b1774c0340] mb B  I16..4:  0.0%  0.0%  0.0%  B16..8: 23.2%  0.1%  0.0%  direct: 0.0%  skip:76.7%  L0:47.1% L1:52.9% BI: 0.0%\n[libx264 @ 000002b1774c0340] 8x8 transform intra:89.0% inter:93.7%\n[libx264 @ 000002b1774c0340] direct mvs  spatial:94.6% temporal:5.4%\n[libx264 @ 000002b1774c0340] coded y,uvDC,uvAC intra: 69.6% 23.1% 1.4% inter: 4.5% 1.7% 0.0%\n[libx264 @ 000002b1774c0340] i16 v,h,dc,p: 21% 33%  8% 38%\n[libx264 @ 000002b1774c0340] i8 v,h,dc,ddl,ddr,vr,hd,vl,hu:  6%  2%  2% 13% 24% 16% 20%  8% 10%\n[libx264 @ 000002b1774c0340] i4 v,h,dc,ddl,ddr,vr,hd,vl,hu:  6%  2%  1% 14% 21% 16% 17% 10% 13%\n[libx264 @ 000002b1774c0340] i8c dc,h,v,p: 85% 10%  3%  2%\n[libx264 @ 000002b1774c0340] Weighted P-Frames: Y:0.0% UV:0.0%\n[libx264 @ 000002b1774c0340] ref P L0: 63.6%  4.6% 15.6%  7.9%  8.4%\n[libx264 @ 000002b1774c0340] ref B L0: 93.9%  5.9%  0.1%  0.0%\n[libx264 @ 000002b1774c0340] ref B L1: 99.1%  0.9%\n[libx264 @ 000002b1774c0340] kb/s:2252.62\n",
  "seconds": 11.446764707565308,
  "probe_out": {}
}